<?xml version="1.0" standalone="no"?>
<!DOCTYPE svg PUBLIC "-//W3C//DTD SVG 20010904//EN"
 "http://www.w3.org/TR/2001/REC-SVG-20010904/DTD/svg10.dtd">
<svg version="1.0" xmlns="http://www.w3.org/2000/svg"
 width="2004.000000pt" height="2004.000000pt" viewBox="0 0 2004.000000 2004.000000"
 preserveAspectRatio="xMidYMid meet">
<metadata>
Created by potrace 1.14, written by Peter Selinger 2001-2017
</metadata>
<g transform="translate(0.000000,2004.000000) scale(0.100000,-0.100000)"
fill="#000000" stroke="none">
<path d="M17275 15462 c-679 -448 -1179 -973 -1443 -1513 -107 -219 -166 -406
-198 -621 -9 -62 -17 -114 -18 -115 -1 -1 -26 14 -55 33 -376 253 -735 389
-997 377 l-79 -3 -55 52 c-92 88 -297 257 -386 318 -12 8 -70 48 -128 88 -212
145 -499 306 -726 407 -47 21 -103 46 -125 55 -140 63 -489 188 -630 226 -193
52 -258 68 -425 104 -102 22 -203 42 -225 45 -22 4 -47 8 -55 10 -8 2 -37 7
-65 10 -27 3 -75 10 -105 15 -30 5 -80 12 -110 14 -55 5 -134 13 -201 21 -78
9 -362 19 -514 18 -158 0 -491 -12 -524 -18 -9 -1 -56 -6 -105 -10 -50 -4 -98
-8 -107 -10 -10 -2 -46 -6 -81 -10 -35 -3 -74 -8 -88 -10 -14 -2 -45 -7 -70
-10 -159 -21 -436 -75 -626 -120 -584 -140 -1211 -378 -1696 -644 -32 -17 -83
-45 -114 -62 -152 -82 -437 -263 -604 -384 -88 -63 -341 -256 -366 -280 -7 -5
-29 -24 -50 -42 -22 -17 -48 -39 -60 -50 -12 -10 -50 -43 -85 -73 -83 -70
-468 -456 -539 -539 -30 -35 -60 -69 -65 -75 -121 -130 -456 -593 -541 -746
-10 -19 -22 -36 -26 -38 -5 -2 -8 -8 -8 -13 0 -5 -11 -26 -23 -47 -100 -158
-262 -495 -352 -727 -101 -261 -201 -604 -239 -820 -3 -16 -8 -41 -10 -55 -3
-14 -8 -41 -10 -60 -3 -19 -8 -46 -10 -60 -3 -14 -7 -47 -10 -75 -3 -27 -8
-68 -11 -90 -34 -251 -38 -677 -9 -903 l6 -42 -129 -128 c-107 -105 -203 -221
-296 -356 -13 -18 -14 -18 -52 6 -22 14 -60 36 -85 50 -25 14 -106 61 -180
103 -173 100 -589 311 -795 405 -303 137 -658 273 -955 364 -228 71 -625 155
-800 170 -36 3 -87 8 -115 11 -27 3 -92 7 -144 8 l-93 2 -119 -123 c-262 -272
-423 -513 -505 -757 -33 -97 -38 -123 -41 -225 -4 -171 6 -202 172 -535 174
-347 186 -382 181 -525 -5 -165 -55 -287 -230 -560 -85 -132 -110 -199 -104
-275 6 -65 23 -108 70 -167 55 -70 209 -173 367 -246 42 -19 113 -52 159 -73
46 -22 85 -39 88 -39 14 0 312 -155 372 -193 85 -55 181 -144 222 -205 43 -65
59 -129 64 -252 7 -185 54 -284 199 -423 196 -189 561 -355 1005 -457 l133
-31 54 31 c65 37 277 187 378 267 212 168 479 420 633 598 261 302 454 629
559 950 32 97 73 286 81 371 l7 71 101 -68 c255 -171 555 -304 766 -339 90
-15 234 -16 273 -1 43 17 26 26 165 -97 285 -254 612 -473 997 -667 234 -118
254 -127 465 -210 262 -103 640 -217 860 -259 14 -2 93 -18 175 -35 83 -16
204 -37 270 -46 66 -8 134 -17 150 -20 17 -2 68 -7 115 -10 47 -4 91 -8 97
-10 25 -8 331 -19 518 -19 169 0 406 8 520 19 22 2 72 6 110 10 73 6 366 42
400 49 11 2 40 7 65 10 25 4 126 23 224 42 485 95 977 249 1451 454 112 49
509 241 565 274 14 8 93 54 175 102 366 213 720 468 1056 764 101 89 419 406
510 509 41 46 79 89 84 95 21 22 173 212 236 296 322 425 602 941 772 1425 43
123 105 319 112 354 2 9 11 45 20 81 9 36 19 73 21 83 2 10 5 26 8 35 3 9 8
33 11 52 3 19 12 67 20 105 26 129 43 250 59 435 14 159 13 683 -1 785 l-9 60
100 105 c120 125 132 139 214 255 35 50 68 92 73 94 6 1 18 -3 27 -11 9 -8 80
-51 157 -95 819 -469 1622 -802 2260 -936 270 -58 404 -76 610 -83 l150 -6
106 108 c430 442 622 852 548 1168 -10 46 -109 277 -129 301 -21 26 -171 338
-191 395 -13 41 -23 97 -25 150 -6 169 49 314 221 585 46 72 90 152 99 178 38
112 9 220 -81 311 -90 89 -210 157 -572 323 -261 119 -361 174 -476 264 -66
52 -91 80 -139 154 -42 65 -54 115 -59 250 -5 125 -24 187 -86 281 -154 236
-540 444 -1064 574 -90 22 -172 40 -182 39 -11 0 -38 -12 -60 -27z"/>
</g>
</svg>
